<?xml version="1.0" encoding="UTF-8" standalone="no"?>
<!-- Generator: Adobe Illustrator 19.0.0, SVG Export Plug-In . SVG Version: 6.00 Build 0)  -->

<svg
   xmlns:dc="http://purl.org/dc/elements/1.1/"
   xmlns:cc="http://creativecommons.org/ns#"
   xmlns:rdf="http://www.w3.org/1999/02/22-rdf-syntax-ns#"
   xmlns:svg="http://www.w3.org/2000/svg"
   xmlns="http://www.w3.org/2000/svg"
   xmlns:sodipodi="http://sodipodi.sourceforge.net/DTD/sodipodi-0.dtd"
   xmlns:inkscape="http://www.inkscape.org/namespaces/inkscape"
   version="1.1"
   id="Capa_1"
   x="0px"
   y="0px"
   viewBox="0 0 512.001 512.001"
   style="enable-background:new 0 0 512.001 512.001;"
   xml:space="preserve"
   sodipodi:docname="fan.svg"
   inkscape:version="0.92.3 (2405546, 2018-03-11)"><metadata
   id="metadata101"><rdf:RDF><cc:Work
       rdf:about=""><dc:format>image/svg+xml</dc:format><dc:type
         rdf:resource="http://purl.org/dc/dcmitype/StillImage" /><dc:title></dc:title></cc:Work></rdf:RDF></metadata><defs
   id="defs99">
	
	
	
	
	
	

	
	
	
	
	
	
</defs><sodipodi:namedview
   pagecolor="#ffffff"
   bordercolor="#666666"
   borderopacity="1"
   objecttolerance="10"
   gridtolerance="10"
   guidetolerance="10"
   inkscape:pageopacity="0"
   inkscape:pageshadow="2"
   inkscape:window-width="1920"
   inkscape:window-height="1052"
   id="namedview97"
   showgrid="false"
   inkscape:zoom="1.6777312"
   inkscape:cx="256.00049"
   inkscape:cy="256.00049"
   inkscape:window-x="1920"
   inkscape:window-y="0"
   inkscape:window-maximized="1"
   inkscape:current-layer="Capa_1" />
<path
   style="fill:#d9d9d9;fill-opacity:1"
   d="M490.449,0H21.551C9.649,0,0,9.649,0,21.551V490.45C0,502.351,9.649,512,21.551,512H490.45  c11.902,0,21.551-9.649,21.551-21.551V21.551C512,9.649,502.351,0,490.449,0z M256,473.129  c-119.917,0-217.129-97.212-217.129-217.129S136.083,38.871,256,38.871S473.129,136.083,473.129,256S375.917,473.129,256,473.129z"
   id="path2" />

<g
   id="g14"
   style="fill:#8b8b8b;fill-opacity:1">
	<circle
   style="fill:#8b8b8b;fill-opacity:1"
   cx="52.833"
   cy="48.965"
   r="21.665"
   id="circle6" />
	<circle
   style="fill:#8b8b8b;fill-opacity:1"
   cx="459.17"
   cy="48.965"
   r="21.665"
   id="circle8" />
	<circle
   style="fill:#8b8b8b;fill-opacity:1"
   cx="52.833"
   cy="456.48"
   r="21.665"
   id="circle10" />
	<circle
   style="fill:#8b8b8b;fill-opacity:1"
   cx="459.17"
   cy="456.48"
   r="21.665"
   id="circle12" />
</g>
<g
   id="g24"
   style="fill:#e1e1e1;fill-opacity:1">
	<path
   style="fill:#e1e1e1;fill-opacity:1"
   d="M31.168,48.965c0,11.966,9.7,21.665,21.665,21.665V27.3C40.868,27.3,31.168,37,31.168,48.965z"
   id="path16" />
	<path
   style="fill:#e1e1e1;fill-opacity:1"
   d="M437.501,48.965c0,11.966,9.7,21.665,21.665,21.665V27.3C447.201,27.3,437.501,37,437.501,48.965z"
   id="path18" />
	<path
   style="fill:#e1e1e1;fill-opacity:1"
   d="M437.501,456.478c0,11.966,9.7,21.665,21.665,21.665v-43.331   C447.201,434.813,437.501,444.513,437.501,456.478z"
   id="path20" />
	<path
   style="fill:#e1e1e1;fill-opacity:1"
   d="M31.168,456.478c0,11.966,9.7,21.665,21.665,21.665v-43.331   C40.868,434.813,31.168,444.513,31.168,456.478z"
   id="path22" />
</g>




<g
   id="g948"
   style="fill:#e3dbdb"><path
     id="path26"
     d="M256,441.611c-15.478,0-30.913-1.928-45.878-5.73c-5.454-1.386-9.906-5.351-11.909-10.606  c-2.012-5.279-1.358-10.986,1.794-15.656c19.756-29.269,31.108-57.09,33.74-82.688c0.912-8.865,8.251-15.55,17.07-15.55h15.275  c8.972,0,16.342,6.743,17.146,15.685c1.961,21.838,4.44,63.816-0.987,99.606c-1.22,8.049-7.939,14.213-15.973,14.656  c-3.407,0.188-6.864,0.283-10.275,0.283C256.003,441.611,256.002,441.611,256,441.611z"
     style="fill:#e3dbdb;fill-opacity:1" /><path
     inkscape:connector-curvature="0"
     id="path30"
     d="m 245.907,200.619 c -8.971,0 -16.342,-6.743 -17.145,-15.685 -1.961,-21.836 -4.442,-63.812 0.987,-99.606 1.22,-8.049 7.938,-14.213 15.972,-14.656 3.407,-0.188 6.865,-0.283 10.278,-0.283 15.478,0 30.913,1.928 45.879,5.73 5.454,1.386 9.905,5.351 11.908,10.606 2.012,5.279 1.358,10.985 -1.794,15.656 -19.756,29.268 -31.108,57.088 -33.741,82.688 -0.91,8.865 -8.248,15.55 -17.068,15.55 z"
     style="fill:#e3dbdb;fill-opacity:1" /><path
     style="fill:#e3dbdb"
     d="m 197.533,229.017 c -4.027,0 -7.949,-1.424 -11.044,-4.008 -16.826,-14.052 -48.26,-41.978 -69.735,-71.13 -4.828,-6.555 -4.436,-15.663 0.932,-21.658 12.646,-14.122 27.302,-26.186 43.56,-35.857 2.686,-1.597 5.738,-2.441 8.827,-2.441 8.231,0 15.337,5.828 16.895,13.859 6.726,34.665 18.371,62.364 34.611,82.327 5.624,6.913 5.161,16.829 -1.074,23.065 l -10.802,10.802 c -3.251,3.25 -7.572,5.04 -12.17,5.041 0,0 0,0 0,0 z"
     id="path34"
     inkscape:connector-curvature="0" /><path
     style="fill:#e3dbdb"
     d="m 310.9,225.501 c -4.565,-0.001 -8.854,-1.775 -12.075,-4.996 l -10.801,-10.802 c -6.344,-6.344 -6.788,-16.323 -1.033,-23.214 14.052,-16.826 41.979,-48.261 71.13,-69.735 3.013,-2.219 6.575,-3.392 10.304,-3.392 4.208,0 8.24,1.536 11.353,4.323 14.124,12.647 26.188,27.303 35.857,43.56 2.877,4.837 3.221,10.789 0.922,15.922 -2.31,5.155 -6.808,8.728 -12.339,9.801 -34.665,6.726 -62.364,18.371 -82.327,34.611 -3.109,2.529 -7.013,3.922 -10.991,3.922 z"
     id="path36"
     inkscape:connector-curvature="0" /><path
     style="fill:#e3dbdb"
     d="m 341.927,418.076 c -8.231,0 -15.337,-5.829 -16.894,-13.86 -6.727,-34.666 -18.372,-62.365 -34.611,-82.326 -5.625,-6.912 -5.163,-16.828 1.074,-23.065 l 10.801,-10.801 c 3.25,-3.251 7.572,-5.04 12.17,-5.04 4.027,0 7.95,1.423 11.044,4.008 16.827,14.052 48.261,41.979 69.734,71.13 4.829,6.555 4.437,15.663 -0.932,21.658 -12.647,14.123 -27.302,26.186 -43.559,35.857 -2.686,1.597 -5.738,2.441 -8.827,2.441 0,-0.002 0,-0.002 0,-0.002 z"
     id="path38"
     inkscape:connector-curvature="0" /><path
     style="fill:#e3dbdb"
     d="m 143.575,398.638 c -4.208,0 -8.24,-1.536 -11.354,-4.323 -14.122,-12.646 -26.186,-27.302 -35.857,-43.56 -2.877,-4.837 -3.221,-10.789 -0.921,-15.922 2.31,-5.155 6.808,-8.728 12.339,-9.801 34.665,-6.726 62.364,-18.371 82.327,-34.611 3.109,-2.529 7.012,-3.922 10.99,-3.922 4.565,0 8.854,1.775 12.075,4.996 l 10.802,10.802 c 6.343,6.344 6.787,16.323 1.032,23.214 -14.052,16.826 -41.978,48.26 -71.13,69.735 -3.011,2.219 -6.575,3.392 -10.303,3.392 z"
     id="path40"
     inkscape:connector-curvature="0" /><path
     style="fill:#e3dbdb"
     d="m 419.136,314.922 c -3.387,0 -6.678,-1.013 -9.517,-2.929 -29.27,-19.756 -57.09,-31.108 -82.688,-33.74 -8.864,-0.911 -15.549,-8.25 -15.549,-17.069 v -15.276 c 0,-8.971 6.743,-16.342 15.685,-17.145 11.652,-1.047 29.735,-2.294 49.714,-2.294 18.747,0 35.533,1.104 49.891,3.281 8.049,1.22 14.213,7.938 14.656,15.973 1.043,18.929 -0.79,37.822 -5.448,56.155 -1.952,7.68 -8.837,13.044 -16.744,13.044 0,0 0,0 0,0 z"
     id="path42"
     inkscape:connector-curvature="0" /><path
     style="fill:#e3dbdb"
     d="m 135.218,285.533 c -18.747,0 -35.533,-1.104 -49.889,-3.282 -8.049,-1.22 -14.213,-7.938 -14.656,-15.972 -1.043,-18.931 0.79,-37.824 5.448,-56.156 1.951,-7.68 8.837,-13.044 16.744,-13.044 3.387,0 6.679,1.013 9.518,2.929 29.269,19.756 57.089,31.108 82.688,33.74 8.865,0.911 15.55,8.249 15.55,17.069 v 15.276 c 0,8.971 -6.743,16.342 -15.685,17.145 -11.653,1.047 -29.739,2.295 -49.714,2.295 -0.004,0 -0.003,0 -0.004,0 z"
     id="path44"
     inkscape:connector-curvature="0" /></g>
<g
   id="g938"
   style="fill:#f25b5b;fill-opacity:1"><path
     id="path28"
     d="M198.213,425.275c2.003,5.255,6.455,9.22,11.909,10.606c8.163,2.074,16.469,3.57,24.842,4.519  c16.998-48.59,24.267-118.797,25.258-129.019h-9.405c-8.819,0-16.158,6.685-17.07,15.55c-2.632,25.598-13.984,53.419-33.74,82.688  C196.855,414.289,196.201,419.995,198.213,425.275z"
     style="fill:#f25b5b;fill-opacity:1" /><path
     id="path32"
     d="M313.787,86.726c-2.003-5.255-6.455-9.22-11.908-10.606c-9.54-2.424-19.271-4.078-29.082-4.965  c-6.567,17.486-17.16,56.015-17.16,122.712c0,2.415,0.084,4.653,0.234,6.753h5.314c8.638,0,15.839-6.418,16.988-15.01  c0.177-1.712,0.398-3.435,0.652-5.167c3.457-24.313,14.598-50.546,33.17-78.06C315.145,97.711,315.799,92.005,313.787,86.726z"
     style="fill:#f25b5b;fill-opacity:1" /><path
     style="fill:#f25b5b;fill-opacity:1"
     d="m 185.069,233.748 c -25.599,-2.632 -53.419,-13.984 -82.688,-33.74 -2.839,-1.917 -6.13,-2.929 -9.518,-2.929 -7.908,0 -14.793,5.364 -16.744,13.044 -2.058,8.101 -3.563,16.313 -4.514,24.588 49.233,17.22 120.729,24.418 129.013,25.209 v -9.102 c 0.001,-8.821 -6.684,-16.159 -15.549,-17.07 z"
     id="path48"
     inkscape:connector-curvature="0" /><path
     style="fill:#f25b5b;fill-opacity:1"
     d="m 326.931,278.252 c 25.599,2.632 53.419,13.984 82.688,33.74 2.839,1.916 6.13,2.929 9.517,2.929 0,0 0,0 10e-4,0 7.906,0 14.792,-5.364 16.743,-13.044 2.453,-9.654 4.114,-19.463 4.993,-29.351 -17.535,-6.59 -56.209,-17.233 -123.183,-17.233 -2.244,0 -4.336,0.072 -6.308,0.202 v 5.688 c -0.001,8.82 6.684,16.158 15.549,17.069 z"
     id="path50"
     inkscape:connector-curvature="0" /><path
     style="fill:#f25b5b;fill-opacity:1"
     d="m 170.073,93.924 c -3.09,0 -6.142,0.844 -8.827,2.441 -7.202,4.284 -14.068,9.063 -20.606,14.257 22.917,47.555 69.26,103.987 73.414,109.004 l 6.451,-6.451 c 6.236,-6.236 6.698,-16.152 1.074,-23.065 -15.283,-18.786 -26.493,-44.428 -33.368,-76.275 -0.463,-2.113 -0.907,-4.253 -1.332,-6.42 -1.702,-7.838 -8.702,-13.491 -16.806,-13.491 z"
     id="path52"
     inkscape:connector-curvature="0" /><path
     style="fill:#f25b5b;fill-opacity:1"
     d="m 375.154,398.293 c -7.91,-17.317 -27.939,-52.317 -75.358,-99.736 -1.418,-1.418 -2.792,-2.712 -4.129,-3.904 l -4.171,4.172 c -6.237,6.237 -6.699,16.153 -1.074,23.065 16.238,19.962 27.883,47.66 34.611,82.326 1.557,8.031 8.663,13.859 16.894,13.86 0,0 0,0 10e-4,0 3.089,0 6.141,-0.844 8.827,-2.441 8.607,-5.12 16.75,-10.929 24.399,-17.342 z"
     id="path54"
     inkscape:connector-curvature="0" /><path
     style="fill:#f25b5b;fill-opacity:1"
     d="m 409.641,151.881 c -0.319,-0.469 -0.629,-0.944 -0.952,-1.411 -1.114,-1.602 -2.252,-3.186 -3.414,-4.752 -0.057,-0.077 -0.112,-0.155 -0.169,-0.231 -1.236,-1.661 -2.498,-3.302 -3.787,-4.922 -44.876,21.496 -99.242,65.382 -109.025,73.408 l 6.53,6.531 c 3.221,3.221 7.51,4.995 12.075,4.996 3.978,0 7.881,-1.393 10.99,-3.922 19.963,-16.24 47.662,-27.885 82.327,-34.611 5.531,-1.073 10.029,-4.646 12.339,-9.801 2.3,-5.133 1.956,-11.084 -0.922,-15.922 -1.116,-1.877 -2.272,-3.727 -3.452,-5.56 -0.825,-1.281 -1.681,-2.543 -2.54,-3.803 z"
     id="path56"
     inkscape:connector-curvature="0" /><path
     style="fill:#f25b5b;fill-opacity:1"
     d="m 95.444,334.833 c -2.3,5.133 -1.956,11.085 0.921,15.922 5.021,8.44 10.7,16.437 16.963,23.957 17.048,-7.724 51.977,-27.551 99.434,-75.007 1.53,-1.53 2.914,-3.008 4.179,-4.443 l -3.766,-3.766 c -3.222,-3.221 -7.511,-4.996 -12.075,-4.996 -3.978,0 -7.881,1.393 -10.99,3.922 -19.963,16.24 -47.661,27.885 -82.327,34.611 -5.531,1.072 -10.029,4.645 -12.339,9.8 z"
     id="path58"
     inkscape:connector-curvature="0" /></g>
<path
   style="fill:#e3dbdb;fill-opacity:1"
   d="M201.787,310.213c-29.893-29.893-29.893-78.534,0-108.427s78.534-29.893,108.427,0  s29.893,78.534,0,108.427C280.32,340.107,231.68,340.107,201.787,310.213z"
   id="path62" />
<path
   style="fill:#d6a9a9;fill-opacity:1"
   d="M310.213,310.213c29.893-29.893,29.893-78.534,0-108.427L201.787,310.213  C231.68,340.107,280.32,340.107,310.213,310.213z"
   id="path64" />
<g
   id="g66">
</g>
<g
   id="g68">
</g>
<g
   id="g70">
</g>
<g
   id="g72">
</g>
<g
   id="g74">
</g>
<g
   id="g76">
</g>
<g
   id="g78">
</g>
<g
   id="g80">
</g>
<g
   id="g82">
</g>
<g
   id="g84">
</g>
<g
   id="g86">
</g>
<g
   id="g88">
</g>
<g
   id="g90">
</g>
<g
   id="g92">
</g>
<g
   id="g94">
</g>
</svg>